<mxfile host="app.diagrams.net" agent="Mozilla/5.0 (Windows NT 10.0; Win64; x64) AppleWebKit/537.36 (KHTML, like Gecko) Chrome/134.0.0.0 Safari/537.36" version="25.0.3">
  <diagram name="Page-1" id="asu4e0FaSWUadc5WHV2M">
    <mxGraphModel dx="1434" dy="953" grid="1" gridSize="10" guides="1" tooltips="1" connect="1" arrows="1" fold="1" page="1" pageScale="1" pageWidth="827" pageHeight="1169" math="0" shadow="0">
      <root>
        <mxCell id="0" />
        <mxCell id="1" parent="0" />
        <mxCell id="QORsJvuWbWGPxjODajM7-37" style="edgeStyle=orthogonalEdgeStyle;rounded=0;orthogonalLoop=1;jettySize=auto;html=1;exitX=0.75;exitY=0;exitDx=0;exitDy=0;entryX=0.25;entryY=0;entryDx=0;entryDy=0;" edge="1" parent="1" source="QORsJvuWbWGPxjODajM7-3" target="QORsJvuWbWGPxjODajM7-11">
          <mxGeometry relative="1" as="geometry" />
        </mxCell>
        <mxCell id="QORsJvuWbWGPxjODajM7-38" value="Filtruje hospody" style="edgeLabel;html=1;align=center;verticalAlign=middle;resizable=0;points=[];" vertex="1" connectable="0" parent="QORsJvuWbWGPxjODajM7-37">
          <mxGeometry x="0.7127" relative="1" as="geometry">
            <mxPoint y="1" as="offset" />
          </mxGeometry>
        </mxCell>
        <mxCell id="QORsJvuWbWGPxjODajM7-3" value="Uživatel" style="swimlane;fontStyle=0;childLayout=stackLayout;horizontal=1;startSize=30;horizontalStack=0;resizeParent=1;resizeParentMax=0;resizeLast=0;collapsible=1;marginBottom=0;whiteSpace=wrap;html=1;" vertex="1" parent="1">
          <mxGeometry x="70" y="160" width="150" height="90" as="geometry" />
        </mxCell>
        <mxCell id="QORsJvuWbWGPxjODajM7-4" value="Jméno" style="text;strokeColor=none;fillColor=none;align=left;verticalAlign=middle;spacingLeft=4;spacingRight=4;overflow=hidden;points=[[0,0.5],[1,0.5]];portConstraint=eastwest;rotatable=0;whiteSpace=wrap;html=1;" vertex="1" parent="QORsJvuWbWGPxjODajM7-3">
          <mxGeometry y="30" width="150" height="30" as="geometry" />
        </mxCell>
        <mxCell id="QORsJvuWbWGPxjODajM7-5" value="email" style="text;strokeColor=none;fillColor=none;align=left;verticalAlign=middle;spacingLeft=4;spacingRight=4;overflow=hidden;points=[[0,0.5],[1,0.5]];portConstraint=eastwest;rotatable=0;whiteSpace=wrap;html=1;" vertex="1" parent="QORsJvuWbWGPxjODajM7-3">
          <mxGeometry y="60" width="150" height="30" as="geometry" />
        </mxCell>
        <mxCell id="QORsJvuWbWGPxjODajM7-7" value="API" style="swimlane;fontStyle=0;childLayout=stackLayout;horizontal=1;startSize=30;horizontalStack=0;resizeParent=1;resizeParentMax=0;resizeLast=0;collapsible=1;marginBottom=0;whiteSpace=wrap;html=1;" vertex="1" parent="1">
          <mxGeometry x="70" y="570" width="140" height="60" as="geometry" />
        </mxCell>
        <mxCell id="QORsJvuWbWGPxjODajM7-8" value="Token" style="text;strokeColor=none;fillColor=none;align=left;verticalAlign=middle;spacingLeft=4;spacingRight=4;overflow=hidden;points=[[0,0.5],[1,0.5]];portConstraint=eastwest;rotatable=0;whiteSpace=wrap;html=1;" vertex="1" parent="QORsJvuWbWGPxjODajM7-7">
          <mxGeometry y="30" width="140" height="30" as="geometry" />
        </mxCell>
        <mxCell id="QORsJvuWbWGPxjODajM7-11" value="Mapa" style="swimlane;fontStyle=0;childLayout=stackLayout;horizontal=1;startSize=30;horizontalStack=0;resizeParent=1;resizeParentMax=0;resizeLast=0;collapsible=1;marginBottom=0;whiteSpace=wrap;html=1;" vertex="1" parent="1">
          <mxGeometry x="290" y="430" width="140" height="90" as="geometry" />
        </mxCell>
        <mxCell id="QORsJvuWbWGPxjODajM7-12" value="Poloha uživatele" style="text;strokeColor=none;fillColor=none;align=left;verticalAlign=middle;spacingLeft=4;spacingRight=4;overflow=hidden;points=[[0,0.5],[1,0.5]];portConstraint=eastwest;rotatable=0;whiteSpace=wrap;html=1;" vertex="1" parent="QORsJvuWbWGPxjODajM7-11">
          <mxGeometry y="30" width="140" height="30" as="geometry" />
        </mxCell>
        <mxCell id="QORsJvuWbWGPxjODajM7-13" value="Seznam hospod" style="text;strokeColor=none;fillColor=none;align=left;verticalAlign=middle;spacingLeft=4;spacingRight=4;overflow=hidden;points=[[0,0.5],[1,0.5]];portConstraint=eastwest;rotatable=0;whiteSpace=wrap;html=1;" vertex="1" parent="QORsJvuWbWGPxjODajM7-11">
          <mxGeometry y="60" width="140" height="30" as="geometry" />
        </mxCell>
        <mxCell id="QORsJvuWbWGPxjODajM7-15" value="Hospoda" style="swimlane;fontStyle=0;childLayout=stackLayout;horizontal=1;startSize=30;horizontalStack=0;resizeParent=1;resizeParentMax=0;resizeLast=0;collapsible=1;marginBottom=0;whiteSpace=wrap;html=1;" vertex="1" parent="1">
          <mxGeometry x="470" y="360" width="140" height="120" as="geometry">
            <mxRectangle x="470" y="360" width="90" height="30" as="alternateBounds" />
          </mxGeometry>
        </mxCell>
        <mxCell id="QORsJvuWbWGPxjODajM7-16" value="Lokace" style="text;strokeColor=none;fillColor=none;align=left;verticalAlign=middle;spacingLeft=4;spacingRight=4;overflow=hidden;points=[[0,0.5],[1,0.5]];portConstraint=eastwest;rotatable=0;whiteSpace=wrap;html=1;" vertex="1" parent="QORsJvuWbWGPxjODajM7-15">
          <mxGeometry y="30" width="140" height="30" as="geometry" />
        </mxCell>
        <mxCell id="QORsJvuWbWGPxjODajM7-34" value="Název" style="text;strokeColor=none;fillColor=none;align=left;verticalAlign=middle;spacingLeft=4;spacingRight=4;overflow=hidden;points=[[0,0.5],[1,0.5]];portConstraint=eastwest;rotatable=0;whiteSpace=wrap;html=1;" vertex="1" parent="QORsJvuWbWGPxjODajM7-15">
          <mxGeometry y="60" width="140" height="30" as="geometry" />
        </mxCell>
        <mxCell id="QORsJvuWbWGPxjODajM7-17" value="Informace" style="text;strokeColor=none;fillColor=none;align=left;verticalAlign=middle;spacingLeft=4;spacingRight=4;overflow=hidden;points=[[0,0.5],[1,0.5]];portConstraint=eastwest;rotatable=0;whiteSpace=wrap;html=1;" vertex="1" parent="QORsJvuWbWGPxjODajM7-15">
          <mxGeometry y="90" width="140" height="30" as="geometry" />
        </mxCell>
        <mxCell id="QORsJvuWbWGPxjODajM7-20" style="edgeStyle=orthogonalEdgeStyle;rounded=0;orthogonalLoop=1;jettySize=auto;html=1;exitX=1;exitY=0.5;exitDx=0;exitDy=0;entryX=0.5;entryY=0;entryDx=0;entryDy=0;" edge="1" parent="1" source="QORsJvuWbWGPxjODajM7-5" target="QORsJvuWbWGPxjODajM7-11">
          <mxGeometry relative="1" as="geometry" />
        </mxCell>
        <mxCell id="QORsJvuWbWGPxjODajM7-22" value="Zobrazuje" style="edgeLabel;html=1;align=center;verticalAlign=middle;resizable=0;points=[];" vertex="1" connectable="0" parent="QORsJvuWbWGPxjODajM7-20">
          <mxGeometry x="0.0667" y="1" relative="1" as="geometry">
            <mxPoint as="offset" />
          </mxGeometry>
        </mxCell>
        <mxCell id="QORsJvuWbWGPxjODajM7-21" style="edgeStyle=orthogonalEdgeStyle;rounded=0;orthogonalLoop=1;jettySize=auto;html=1;exitX=0.5;exitY=0;exitDx=0;exitDy=0;entryX=0.407;entryY=1.033;entryDx=0;entryDy=0;entryPerimeter=0;" edge="1" parent="1" source="QORsJvuWbWGPxjODajM7-7" target="QORsJvuWbWGPxjODajM7-13">
          <mxGeometry relative="1" as="geometry" />
        </mxCell>
        <mxCell id="QORsJvuWbWGPxjODajM7-23" value="Poskytuje data o hospodách" style="edgeLabel;html=1;align=center;verticalAlign=middle;resizable=0;points=[];" vertex="1" connectable="0" parent="QORsJvuWbWGPxjODajM7-21">
          <mxGeometry x="0.0512" y="-2" relative="1" as="geometry">
            <mxPoint as="offset" />
          </mxGeometry>
        </mxCell>
        <mxCell id="QORsJvuWbWGPxjODajM7-24" style="edgeStyle=orthogonalEdgeStyle;rounded=0;orthogonalLoop=1;jettySize=auto;html=1;exitX=1;exitY=0.5;exitDx=0;exitDy=0;entryX=0.5;entryY=0;entryDx=0;entryDy=0;" edge="1" parent="1" source="QORsJvuWbWGPxjODajM7-4" target="QORsJvuWbWGPxjODajM7-15">
          <mxGeometry relative="1" as="geometry" />
        </mxCell>
        <mxCell id="QORsJvuWbWGPxjODajM7-25" value="Zobrazuje detail" style="edgeLabel;html=1;align=center;verticalAlign=middle;resizable=0;points=[];" vertex="1" connectable="0" parent="QORsJvuWbWGPxjODajM7-24">
          <mxGeometry x="-0.1411" y="1" relative="1" as="geometry">
            <mxPoint as="offset" />
          </mxGeometry>
        </mxCell>
        <mxCell id="QORsJvuWbWGPxjODajM7-26" value="Databáze" style="swimlane;fontStyle=0;childLayout=stackLayout;horizontal=1;startSize=30;horizontalStack=0;resizeParent=1;resizeParentMax=0;resizeLast=0;collapsible=1;marginBottom=0;whiteSpace=wrap;html=1;" vertex="1" parent="1">
          <mxGeometry x="50" y="360" width="140" height="60" as="geometry" />
        </mxCell>
        <mxCell id="QORsJvuWbWGPxjODajM7-27" value="Seznam uživatelů" style="text;strokeColor=none;fillColor=none;align=left;verticalAlign=middle;spacingLeft=4;spacingRight=4;overflow=hidden;points=[[0,0.5],[1,0.5]];portConstraint=eastwest;rotatable=0;whiteSpace=wrap;html=1;" vertex="1" parent="QORsJvuWbWGPxjODajM7-26">
          <mxGeometry y="30" width="140" height="30" as="geometry" />
        </mxCell>
        <mxCell id="QORsJvuWbWGPxjODajM7-30" style="edgeStyle=orthogonalEdgeStyle;rounded=0;orthogonalLoop=1;jettySize=auto;html=1;exitX=0;exitY=0.5;exitDx=0;exitDy=0;entryX=0.25;entryY=0;entryDx=0;entryDy=0;" edge="1" parent="1" source="QORsJvuWbWGPxjODajM7-5" target="QORsJvuWbWGPxjODajM7-26">
          <mxGeometry relative="1" as="geometry" />
        </mxCell>
        <mxCell id="QORsJvuWbWGPxjODajM7-31" value="Registruje se" style="edgeLabel;html=1;align=center;verticalAlign=middle;resizable=0;points=[];" vertex="1" connectable="0" parent="QORsJvuWbWGPxjODajM7-30">
          <mxGeometry x="0.1889" y="3" relative="1" as="geometry">
            <mxPoint as="offset" />
          </mxGeometry>
        </mxCell>
        <mxCell id="QORsJvuWbWGPxjODajM7-32" style="edgeStyle=orthogonalEdgeStyle;rounded=0;orthogonalLoop=1;jettySize=auto;html=1;exitX=0.75;exitY=0;exitDx=0;exitDy=0;entryX=0.667;entryY=0.967;entryDx=0;entryDy=0;entryPerimeter=0;" edge="1" parent="1" source="QORsJvuWbWGPxjODajM7-26" target="QORsJvuWbWGPxjODajM7-5">
          <mxGeometry relative="1" as="geometry" />
        </mxCell>
        <mxCell id="QORsJvuWbWGPxjODajM7-33" value="Ověřuje" style="edgeLabel;html=1;align=center;verticalAlign=middle;resizable=0;points=[];" vertex="1" connectable="0" parent="QORsJvuWbWGPxjODajM7-32">
          <mxGeometry x="0.0469" y="-1" relative="1" as="geometry">
            <mxPoint as="offset" />
          </mxGeometry>
        </mxCell>
        <mxCell id="QORsJvuWbWGPxjODajM7-35" style="edgeStyle=orthogonalEdgeStyle;rounded=0;orthogonalLoop=1;jettySize=auto;html=1;exitX=1;exitY=0.5;exitDx=0;exitDy=0;entryX=0.5;entryY=1;entryDx=0;entryDy=0;entryPerimeter=0;" edge="1" parent="1" source="QORsJvuWbWGPxjODajM7-8" target="QORsJvuWbWGPxjODajM7-17">
          <mxGeometry relative="1" as="geometry" />
        </mxCell>
        <mxCell id="QORsJvuWbWGPxjODajM7-36" value="Poskytuje informace o hospodě" style="edgeLabel;html=1;align=center;verticalAlign=middle;resizable=0;points=[];" vertex="1" connectable="0" parent="QORsJvuWbWGPxjODajM7-35">
          <mxGeometry x="-0.243" y="-4" relative="1" as="geometry">
            <mxPoint as="offset" />
          </mxGeometry>
        </mxCell>
      </root>
    </mxGraphModel>
  </diagram>
</mxfile>
